<?xml version="1.0" encoding="UTF-8"?>
<!DOCTYPE svg PUBLIC "-//W3C//DTD SVG 1.1//EN" "http://www.w3.org/Graphics/SVG/1.1/DTD/svg11.dtd">
<!-- Creator: CorelDRAW -->
<svg xmlns="http://www.w3.org/2000/svg" xml:space="preserve" width="76.6769mm" height="37.6531mm" version="1.1" style="shape-rendering:geometricPrecision; text-rendering:geometricPrecision; image-rendering:optimizeQuality; fill-rule:evenodd; clip-rule:evenodd"
viewBox="0 0 2199.82 1080.25"
 xmlns:xlink="http://www.w3.org/1999/xlink"
 xmlns:xodm="http://www.corel.com/coreldraw/odm/2003">
 <defs>
  <style type="text/css">
   <![CDATA[
    .fil0 {fill:url(#id0)}
   ]]>
  </style>
  <linearGradient id="id0" gradientUnits="userSpaceOnUse" x1="-0" y1="540.12" x2="2199.82" y2="540.12">
   <stop offset="0" style="stop-opacity:1; stop-color:#866359"/>
   <stop offset="0.54902" style="stop-opacity:1; stop-color:#D4B292"/>
   <stop offset="0.8" style="stop-opacity:1; stop-color:#C69A86"/>
   <stop offset="1" style="stop-opacity:1; stop-color:#947464"/>
  </linearGradient>
 </defs>
 <g id="Layer_x0020_1">
  <metadata id="CorelCorpID_0Corel-Layer"/>
  <path class="fil0" d="M2006.75 310.09l-0.37 -304.31 -337.66 -0.2c95.88,33.83 134.44,33.76 214.45,105.78 100.33,90.31 96.54,157.4 123.58,198.73zm-786.94 15.31l277.29 4.69 1.45 -311.53c-137.85,-12.51 -294.94,171.6 -278.73,306.84zm162.47 175.21c7.97,-144.37 -26.02,-111.81 36.57,-163.89l-200.02 -2.42c0.69,96.77 65.48,172.48 163.45,166.31zm55.14 -491.61c-22.59,-5.8 -133.89,-0.98 -166.63,-0.86 -19.77,0.07 -61.07,4.95 -71.88,2.43 -32.58,-7.58 -682.71,-4.84 -767.37,-4.6 -64.62,0.18 -300.63,-8.89 -345.38,2.07 -20.32,26.87 -2.75,204.95 4.81,246.41 14.16,77.64 37.45,137.26 67.78,209.11 92.31,218.65 357.66,437.65 575.14,524.09 72.64,28.87 137.3,48.24 214.43,61.94 46.59,8.27 219.92,26.97 255.22,11.42 7.63,-33.14 2.22,-564.43 2.51,-647.23 0.43,-121.82 -22.78,-150.86 48.74,-263.93 71.37,-112.83 174.36,-124.96 182.63,-140.85zm-45.41 388.03l104.36 0.83c-5.97,-65.88 -105.87,-76.48 -104.36,-0.83zm-3.78 101.37c59.29,13.38 105.12,-34.44 108.32,-92.52 -16.36,-3.72 -87.06,-5.66 -99.51,1.7 -18.13,10.72 -9.63,68.41 -8.81,90.82zm604.53 -2.99c30,-163.77 -14.5,-249.26 -114.63,-366.39 -33.96,-39.72 -106.79,-75.08 -156.42,-91.41 -40.72,-13.4 -184.17,-35.58 -217.49,-18.77l-1.06 315.52 -34.83 0.52c4.54,12.35 31.74,24.18 38.69,45.85 7.53,23.48 1.31,54.29 -0.6,78.5 -4.45,56.54 -1.99,38.73 136.45,39.54 66,0.38 302.05,7.28 349.89,-3.35zm18.33 571.57c25.48,4.77 44.81,1.77 69.97,2.75 28.44,1.1 50.44,12.24 50.82,-22.31 0.53,-48.42 -1.82,-100.71 -1.97,-149.94 -0.3,-99.2 0.26,-198.5 -0.47,-297.66 -0.5,-68.31 6.21,-572.56 -2.38,-595.3l-112.73 3.61c-8.97,18.6 -3.92,230.47 -4.17,269.21 -0.3,45.79 7.05,84.59 7.63,128.23 0.57,43.13 -5.98,81.84 -7.55,123.83 -6.17,165.47 -5.45,371.96 0.85,537.58zm-554.3 -565.92l44.67 -0.46 0.98 -45.23c-10.06,9.92 -13.06,18.81 -19.49,25.87 -7.58,8.33 -16.71,9.88 -26.15,19.82zm-243.9 -96.34l-0.93 95.05 89.04 2.15c-16.51,-15.78 -36.2,-23.77 -52.44,-41.17 -17.54,-18.78 -23.75,-37.63 -35.67,-56.04zm-1.1 659.99c286.57,-3.71 498.2,-120.91 673.79,-333.75 30.44,-36.89 121.19,-184.67 99.87,-227.18 -101.62,-18.89 -449.76,3.51 -582.2,10.97 -48.43,2.73 -152.24,-18.91 -191.53,-5.76l0.06 555.7zm793.84 -529.25c-3.56,2.43 -35.32,87.42 -42.99,102.67 -92.42,183.65 -281.76,332.7 -472.95,395.8 -18.06,5.96 -104.22,29.14 -110.24,33.89l627.61 0.8 -1.42 -533.15zm-1932.54 -291.99l0.39 826.03 882.72 -2.44c-2.21,-3.21 -143.07,-36.15 -163.21,-42.93 -283.46,-95.36 -568.6,-333.87 -671.81,-614.42 -8.01,-21.76 -47.52,-165.56 -48.09,-166.24zm-73.08 829.21c20.83,6.53 47.26,3.45 64.35,-9.72l-0.76 -1047.67c-24.21,-19.91 -63.24,-12.95 -62.51,-13.7l2127.03 -1.37 71.71 3.09c-12.61,-8.16 -50.17,-0.33 -63.74,12.18l-0.36 1041.81c10.94,12.62 41.41,24.81 53.37,16.2 -65.73,-6.43 -195.71,2.09 -269.23,2 -92.33,-0.11 -184.64,-1.23 -276.99,-1.1 -92.36,0.13 -185.03,-0.46 -277.34,0.14 -91.47,0.6 -178.45,8.69 -271.27,4.45 -253.03,-11.57 -567,-6.57 -828.08,-4.75 -81.78,0.57 -188.72,-6.27 -266.17,-1.57z"/>
 </g>
</svg>
