<?xml version="1.0" encoding="UTF-8"?>
<!DOCTYPE svg PUBLIC "-//W3C//DTD SVG 1.1//EN" "http://www.w3.org/Graphics/SVG/1.1/DTD/svg11.dtd">
<!-- Creator: CorelDRAW -->
<svg xmlns="http://www.w3.org/2000/svg" xml:space="preserve" width="142.682mm" height="31.2334mm" version="1.1" style="shape-rendering:geometricPrecision; text-rendering:geometricPrecision; image-rendering:optimizeQuality; fill-rule:evenodd; clip-rule:evenodd"
viewBox="0 0 35794.38 7835.45"
 xmlns:xlink="http://www.w3.org/1999/xlink"
 xmlns:xodm="http://www.corel.com/coreldraw/odm/2003">
 <defs>
  <style type="text/css">
   <![CDATA[
    .str0 {stroke:#A55F4D;stroke-width:19.12;stroke-miterlimit:22.9256}
    .fil1 {fill:#835F71}
    .fil2 {fill:url(#id0)}
    .fil0 {fill:url(#id1)}
    .fil3 {fill:url(#id2)}
   ]]>
  </style>
  <linearGradient id="id0" gradientUnits="userSpaceOnUse" x1="16241.56" y1="1522.72" x2="17146.87" y2="1522.72">
   <stop offset="0" style="stop-opacity:1; stop-color:#866359"/>
   <stop offset="0.419608" style="stop-opacity:1; stop-color:#C69A86"/>
   <stop offset="1" style="stop-opacity:1; stop-color:#D9BC97"/>
  </linearGradient>
  <linearGradient id="id1" gradientUnits="userSpaceOnUse" x1="4037.79" y1="4656.58" x2="34756.09" y2="4656.58">
   <stop offset="0" style="stop-opacity:1; stop-color:#835F71"/>
   <stop offset="0.25098" style="stop-opacity:1; stop-color:#886467"/>
   <stop offset="0.4" style="stop-opacity:1; stop-color:#8D695D"/>
   <stop offset="0.701961" style="stop-opacity:1; stop-color:#C69A86"/>
   <stop offset="1" style="stop-opacity:1; stop-color:#947464"/>
  </linearGradient>
  <linearGradient id="id2" gradientUnits="userSpaceOnUse" x1="9916.79" y1="1185.27" x2="12043.65" y2="1185.27">
   <stop offset="0" style="stop-opacity:1; stop-color:#835F71"/>
   <stop offset="0.54902" style="stop-opacity:1; stop-color:#D4B292"/>
   <stop offset="0.8" style="stop-opacity:1; stop-color:#C69A86"/>
   <stop offset="1" style="stop-opacity:1; stop-color:#947464"/>
  </linearGradient>
 </defs>
 <g id="Layer_x0020_1">
  <metadata id="CorelCorpID_0Corel-Layer"/>
  <path class="fil0" d="M30304.14 4670.22c675.11,-548.2 961.58,-787.1 1023.97,-827.99 2.28,-1.4 1.98,-2.94 2.38,-5.64 73.96,-414.81 237.82,-757.24 489.99,-1020.86 356.83,-373.01 810.95,-559.53 1362.41,-559.53 443.28,0 816.32,132.48 1119.07,397.35 302.72,264.94 454.12,656.87 454.12,1175.87 0,27.04 0,54.06 0,81.08l-2894.91 0 7.93 -65.38 -536.61 0.73c-2.71,0 -2.26,-0.13 -4.21,1.83 -46.94,45.11 -218.1,188.25 -468.12,382.17 -165.35,128.24 -384.91,326.73 -601.51,487.11 -3.74,2.81 -9.06,5.09 -13.2,7.15 -1.05,0.75 -1.35,0.93 -1.15,0.6 -284.26,230.8 -515.53,431.79 -631.11,729.1 228.69,-430.04 327.73,-416.36 650.17,-689.81 703.71,-589.81 1013.3,-830.72 1052.64,-851.65 2.76,-1.46 2.21,-1.78 5.22,-1.78l539.82 0c-16.23,145.95 -24.33,297.33 -24.33,454.1 0,670.34 117.56,1162.34 352.74,1475.88 235.19,313.58 544.68,470.35 928.54,470.35 540.62,0 1021.81,-81.08 1443.44,-243.27l24.33 56.77c-432.47,167.58 -920.38,251.37 -1463.74,251.37 -543.3,0 -985.28,-162.19 -1325.88,-486.56 -340.55,-324.37 -510.89,-824.48 -510.89,-1500.26 0,-167.35 10.94,-325.4 32.84,-474.16 -21.85,26.34 -194.22,172.12 -480.46,394.11 -158.37,122.82 -377,315.47 -584.04,473.64l1.81 985.01c0,156.82 31.08,277.08 93.25,360.9 62.16,83.76 125.71,128.39 190.61,133.81l89.18 16.23 251.37 0 0 64.85 -494.64 0c-221.69,0 -390.65,-48.67 -506.85,-145.95 -116.25,-97.31 -177.04,-194.65 -182.46,-291.93l-8.1 -137.9 0 -348.68c-97.34,232.48 -270.33,450.06 -519.02,652.81 -248.68,202.73 -520.35,304.1 -814.99,304.1 -294.64,0 -535.23,-28.4 -721.75,-85.14 -186.52,-56.77 -320.31,-136.5 -401.41,-239.23 -140.54,-167.6 -210.83,-383.85 -210.83,-648.74l0 -3114.04 567.66 0 0 3122.15c0,427.1 113.54,700.12 340.58,819.06 108.15,54.04 246,81.08 413.58,81.08 340.6,0 644.7,-129.75 912.3,-389.25 181.83,-176.33 304.75,-344.27 372.99,-503.06 32.19,-74.88 53.96,-147.64 60.89,-218.68l0 -2911.29 567.64 0 0 2423.23c5.27,-5.54 20.37,-18.56 48.74,-41.62zm3900.51 -824.58c-5.42,-518.99 -105.44,-902.85 -300.04,-1151.53 -194.65,-248.68 -446.02,-373.01 -754.21,-373.01 -308.12,0 -582.51,135.12 -823.1,405.45 -240.56,270.28 -393.26,643.32 -458.16,1119.09l2335.5 0zm-11572.07 616.31c0,-702.81 170.31,-1246.13 510.87,-1629.99 340.6,-383.85 851.49,-575.77 1532.7,-575.77 318.95,0 640.62,81.08 964.99,243.27l0 -210.85 567.69 0 0 3844.85 -2.33 0 0 639.66c0,351.44 39.21,605.49 117.63,762.31 78.35,156.77 243.27,235.14 494.64,235.14 251.42,0 506.88,-51.35 766.35,-154.06l24.33 64.85c-270.31,102.76 -579.83,154.08 -928.54,154.08 -348.71,0 -609.53,-71.62 -782.53,-214.89 -173.02,-143.25 -259.52,-428.46 -259.52,-855.53l0 -1123.06c-102.93,187.57 -272.49,353.75 -508.58,498.62 -237.87,145.98 -518.99,218.98 -843.39,218.98 -1102.86,-27.04 -1654.3,-659.61 -1654.3,-1897.61zm3006.27 -1516.47l2.28 0 0 -373.01c-383.8,-167.6 -713.59,-251.37 -989.32,-251.37 -481.14,0 -843.39,187.82 -1086.66,563.6 -243.29,375.7 -364.91,901.47 -364.91,1577.25 0,1221.83 364.91,1832.71 1094.76,1832.71 362.2,0 673.08,-97.29 932.57,-291.93 250.06,-187.52 387.11,-372.54 411.27,-555.02l0 -2502.23zm-3987.51 3397.85c-221.64,0 -390.6,-48.67 -506.85,-145.95 -116.2,-97.31 -177.04,-194.65 -182.46,-291.93l-8.1 -137.9 0 -3478.93 57.25 0c62.47,48.27 140.84,76.99 225.88,76.99 85.07,0 163.42,-28.72 225.91,-76.99l58.6 0 0 3478.93c0,156.82 31.11,277.08 93.3,360.9 62.16,83.76 122.98,128.39 182.46,133.81l97.29 16.23 251.42 0 0 64.85 -494.69 0zm-3332.95 -3989.82l0 -64.9 170.29 0 0 -810.9 567.64 0 0 810.9 1240.74 0 0 64.9 -1240.74 0 0 2951.83c0,351.42 39.21,605.47 117.61,762.29 78.37,156.77 243.27,235.14 494.66,235.14 251.39,0 506.85,-51.35 766.32,-154.06l24.33 64.87c-270.28,102.73 -579.83,154.08 -928.51,154.08 -348.71,0 -609.53,-71.62 -782.56,-214.89 -173,-143.27 -259.5,-428.48 -259.5,-855.53l0 -2943.73 -170.29 0zm-3454.6 2011.15c0,670.34 117.56,1162.34 352.74,1475.88 235.19,313.58 544.68,470.35 928.54,470.35 540.62,0 1021.81,-81.08 1443.44,-243.27l24.33 56.77c-432.47,167.58 -920.38,251.37 -1463.74,251.37 -543.3,0 -985.28,-162.19 -1325.88,-486.56 -340.55,-324.37 -510.89,-824.48 -510.89,-1500.26 0,-168.91 11.19,-328.36 33.49,-478.38l542.3 0c-16.23,145.95 -24.33,297.33 -24.33,454.1zm-507.56 -518.82c72.9,-420.45 236.67,-763.87 491.32,-1030.11 343.71,-359.32 777.71,-545.56 1302.03,-558.73l-21.32 65.3c-288.2,13.7 -546.19,148.39 -773.88,404.25 -240.56,270.28 -393.26,643.32 -458.16,1119.09l2335.5 0c-5.42,-518.99 -105.41,-902.85 -300.04,-1151.53 -160.1,-204.53 -358.56,-324.92 -595.46,-361.22l50.88 -69.31c366.42,31.13 680.4,161.18 941.93,389.97 302.72,264.94 454.15,656.87 454.15,1175.87 0,27.04 0,54.06 0,81.08l-2894.94 0 7.93 -65.38 -539.94 0.73zm-984.55 2497.49c-221.64,0 -390.6,-48.67 -506.85,-145.95 -116.2,-97.31 -177.04,-194.65 -182.46,-291.93l-8.1 -137.9 0 -2546.31c0,-427.1 -113.52,-700.12 -340.6,-819.06 -584.87,-292.54 -1286.67,195.02 -1641.4,642.65 427.8,-771.24 1701.18,-1119.82 2286.13,-516.99 175.68,181.15 263.51,414.96 263.51,701.5l0 2538.2c0,156.82 31.11,277.08 93.3,360.9 62.16,83.76 122.98,128.39 182.46,133.81l97.29 16.23 251.42 0 0 64.85 -494.69 0zm-2757.18 -2687.04l0 251.85 0 2340.54c-151.8,36.05 -302.14,54.09 -451.11,54.09 -41.17,0 -80.05,-2.13 -116.55,-6.32l0 -1849.65c157.72,-334.58 318.68,-658.03 481.74,-969.5 164.27,-314.46 106.02,-145.23 89.61,83.14 -2.18,31.18 -3.69,63.49 -3.69,95.86zm0 2655.18l0 31.86 -191.76 0c65.58,-8.43 129.52,-19.04 191.76,-31.86zm-567.66 -2075.6c0,-669.74 17.71,-1458.64 17.71,-2128.39 125.58,127.14 339.32,245.02 562.67,238.42l-12.72 803.45c-42.87,61.46 -83.49,126.24 -121.92,194.55 -96.46,173.73 -262.21,508.46 -445.74,891.96zm-2586.9 -1882.36l0 -64.9 170.29 0 0 -810.9 567.64 0 0 810.9 1240.74 0 0 64.9 -1240.74 0 0 2951.83c0,351.42 39.21,605.47 117.61,762.29 78.37,156.77 243.29,235.14 494.66,235.14 251.42,0 506.88,-51.35 766.35,-154.06l24.31 64.87c-270.28,102.73 -579.83,154.08 -928.51,154.08 -348.71,0 -609.53,-71.62 -782.56,-214.89 -173,-143.27 -259.5,-428.48 -259.5,-855.53l0 -2943.73 -170.29 0zm-1013.71 218.96c-86.5,-70.27 -225.71,-129.75 -417.59,-178.42 -191.94,-48.62 -336.56,-72.95 -433.88,-72.95 -97.29,0 -154.08,0 -170.29,0 -291.93,5.39 -502.79,79.73 -632.54,223 -129.75,143.25 -194.62,304.13 -194.62,482.49 0,178.42 56.77,328.46 170.29,450.08 113.52,121.65 255.46,216.25 425.75,283.83 170.31,67.58 354.1,144.63 551.43,231.12 197.36,86.47 381.14,174.33 551.46,263.54 170.29,89.21 312.18,218.98 425.75,389.25 113.52,170.34 170.29,382.5 170.29,636.6 0,254.1 -89.21,470.35 -267.63,648.72 -178.42,178.42 -377.08,297.35 -596.01,356.83 -218.98,59.46 -455.5,89.21 -709.58,89.21 -551.46,0 -965.01,-121.62 -1240.77,-364.94l48.67 -48.62c108.12,102.68 268.98,186.49 482.49,251.37 213.59,64.9 420.35,97.31 620.4,97.31 318.98,0 582.51,-87.85 790.63,-263.56 208.17,-175.68 312.23,-394.66 312.23,-656.87 0,-262.18 -78.4,-473.04 -235.16,-632.54 -156.79,-159.45 -347.35,-283.78 -571.7,-373.01 -224.35,-89.18 -450.08,-178.39 -677.17,-267.6 -227.04,-89.21 -418.95,-213.54 -575.74,-373.04 -156.79,-159.45 -235.16,-344.64 -235.16,-555.5 0,-210.85 48.67,-382.5 145.95,-514.93 97.31,-132.43 227.09,-225.73 389.25,-279.79 275.7,-91.87 551.46,-137.85 827.16,-137.85 464.96,0 827.16,86.5 1086.66,259.5l-40.57 56.77z"/>
  <circle class="fil1" cx="35424.46" cy="5938.85" r="369.92"/>
  <path class="fil1" d="M44.25 3848.96c73.5,-419.75 238.57,-762.51 495.41,-1028.28 346.57,-358.72 784.14,-544.61 1312.81,-557.75l-21.5 65.15c-290.55,13.7 -550.73,148.11 -780.27,403.62 -242.56,269.76 -396.57,642.12 -462.02,1117.04l2354.89 0c-5.44,-518.02 -106.27,-901.24 -302.47,-1149.53 -161.43,-204.18 -361.58,-324.27 -600.4,-360.55l51.28 -69.19c369.45,31.11 686.05,160.88 949.76,389.35 305.23,264.39 457.91,655.67 457.91,1173.71 0,27.02 0,54.04 0,80.93l-2918.99 0 8.03 -65.25 -544.43 0.75zm511.79 517.92c0,669.14 118.48,1160.26 355.63,1473.24 237.15,313.08 549.2,469.55 936.26,469.55 545.08,0 1030.26,-80.93 1455.41,-242.84l24.59 56.67c-436.11,167.28 -928.06,250.89 -1475.9,250.89 -547.84,0 -993.51,-161.88 -1336.9,-485.65 -343.41,-323.82 -515.13,-823.02 -515.13,-1497.63 0,-168.63 11.26,-327.81 33.74,-477.55l546.79 0c-16.36,145.7 -24.48,296.83 -24.48,453.32z"/>
  <polygon class="fil2 str0" points="16594.46,989.47 17146.87,974.12 16341.28,2071.29 16241.56,2071.29 "/>
  <path class="fil1" d="M9908.51 43.22l0 -37.71 169.16 0 563.95 0 433.83 0 0 37.71 -424.59 0 -1.88 1715.48c0,204.23 31.58,351.92 109.48,443.01 77.84,91.12 241.69,136.67 491.42,136.67 186.57,0 375.35,-16.66 566.38,-49.95 -72.4,17.36 -144.27,39.26 -214.84,65.45 -153.18,14.8 -316.02,22.2 -488.49,22.2 -346.42,0 -605.57,-41.64 -777.44,-124.91 -171.87,-83.26 -257.82,-249.01 -257.82,-497.17l0 -1710.79 -169.16 0zm2054.6 2216.44c16.03,-3.49 32.06,-7.07 48.09,-10.79l2.43 3.79c-16.83,2.06 -33.67,4.42 -50.52,7zm-1314.17 47.59l0 -2019.18 -459.24 0c-6.65,657.2 -282.6,1703.16 459.24,2019.18z"/>
  <path class="fil1" d="M44.25 3848.96c73.5,-419.75 238.57,-762.51 495.41,-1028.28 346.57,-358.72 784.14,-544.61 1312.81,-557.75l-21.5 65.15c-290.55,13.7 -550.73,148.11 -780.27,403.62 -242.56,269.76 -396.57,642.12 -462.02,1117.04l2354.89 0c-5.44,-518.02 -106.27,-901.24 -302.47,-1149.53 -161.43,-204.18 -361.58,-324.27 -600.4,-360.55l51.28 -69.19c369.45,31.11 686.05,160.88 949.76,389.35 305.23,264.39 457.91,655.67 457.91,1173.71 0,27.02 0,54.04 0,80.93l-2918.99 0 8.03 -65.25 -544.43 0.75zm511.79 517.92c0,669.14 118.48,1160.26 355.63,1473.24 237.15,313.08 549.2,469.55 936.26,469.55 545.08,0 1030.26,-80.93 1455.41,-242.84l24.59 56.67c-436.11,167.28 -928.06,250.89 -1475.9,250.89 -547.84,0 -993.51,-161.88 -1336.9,-485.65 -343.41,-323.82 -515.13,-823.02 -515.13,-1497.63 0,-168.63 11.26,-327.81 33.74,-477.55l546.79 0c-16.36,145.7 -24.48,296.83 -24.48,453.32z"/>
  <circle class="fil1" cx="21249.02" cy="1852.19" r="369.92"/>
  <path class="fil3" d="M9916.79 37.71l0 -37.71 169.16 0 0 0 563.95 0 0 0 433.83 0 0 37.71 -424.59 0 -1.88 1715.48c0,204.23 31.58,351.92 109.48,443.01 77.84,91.12 241.69,136.67 491.42,136.67 249.76,0 503.57,-29.83 761.33,-89.51l24.16 37.66c-268.53,59.73 -576.02,89.56 -922.44,89.56 -346.42,0 -605.57,-41.64 -777.44,-124.91 -171.87,-83.26 -257.82,-249.01 -257.82,-497.17l0 -1710.79 -169.16 0z"/>
 </g>
</svg>
