<?xml version="1.0" encoding="UTF-8"?>
<!DOCTYPE svg PUBLIC "-//W3C//DTD SVG 1.1//EN" "http://www.w3.org/Graphics/SVG/1.1/DTD/svg11.dtd">
<!-- Creator: CorelDRAW -->
<svg xmlns="http://www.w3.org/2000/svg" xml:space="preserve" width="210mm" height="297mm" version="1.1" style="shape-rendering:geometricPrecision; text-rendering:geometricPrecision; image-rendering:optimizeQuality; fill-rule:evenodd; clip-rule:evenodd"
viewBox="0 0 21000 29700"
 xmlns:xlink="http://www.w3.org/1999/xlink"
 xmlns:xodm="http://www.corel.com/coreldraw/odm/2003">
 <defs>
  <style type="text/css">
   <![CDATA[
    .fil0 {fill:white}
   ]]>
  </style>
 </defs>
 <g id="Layer_x0020_1">
  <metadata id="CorelCorpID_0Corel-Layer"/>
  <path class="fil0" d="M11607.37 17415.07l0 2020.43c-1390.8,0 -2461.34,383.08 -3460.59,1173.2 -268.83,212.57 -646.2,605.39 -853.2,881.74 -412.21,550.35 -737.62,1120.28 -970.63,1774.5 -89.17,250.33 -362.77,1091.96 -376.43,1336.77 -4.9,88.02 56.25,192.3 148.6,192.3 91.73,0 161.29,-76.89 225.87,-125.51 1701.04,-1280.42 3157.24,-1258.04 5286.38,-1258.04l0 2020.42c0,60.77 73.36,116.63 135.12,120.08 101.73,5.69 301.9,-238.68 419.39,-356.17l3447.89 -3447.89c305.38,-305.36 324.7,-323.25 21.96,-625.89 -1224.8,-1224.44 -2521.4,-2493.58 -3722.18,-3722.63 -43.13,-44.15 -90.33,-104.75 -151.45,-109.4 -60.28,-4.59 -150.73,61.53 -150.73,126.09z"/>
 </g>
</svg>
