<?xml version="1.0" encoding="UTF-8"?>
<!DOCTYPE svg PUBLIC "-//W3C//DTD SVG 1.1//EN" "http://www.w3.org/Graphics/SVG/1.1/DTD/svg11.dtd">
<!-- Creator: CorelDRAW -->
<svg xmlns="http://www.w3.org/2000/svg" xml:space="preserve" width="47.481mm" height="47.481mm" version="1.1" style="shape-rendering:geometricPrecision; text-rendering:geometricPrecision; image-rendering:optimizeQuality; fill-rule:evenodd; clip-rule:evenodd"
viewBox="0 0 8308.32 8308.32"
 xmlns:xlink="http://www.w3.org/1999/xlink"
 xmlns:xodm="http://www.corel.com/coreldraw/odm/2003">
 <defs>
  <style type="text/css">
   <![CDATA[
    .str0 {stroke:#A55F4D;stroke-width:13.33;stroke-miterlimit:22.9256}
    .fil1 {fill:white}
    .fil0 {fill:#835F71}
   ]]>
  </style>
 </defs>
 <g id="Layer_x0020_1">
  <metadata id="CorelCorpID_0Corel-Layer"/>
  <circle class="fil0" cx="4154.16" cy="4154.16" r="4154.16"/>
  <g id="_44727976576">
   <path class="fil1" d="M1976.04 3851.96c90.57,-517.14 293.93,-939.44 610.37,-1266.87 426.99,-441.95 966.08,-670.99 1617.43,-687.17l-26.49 80.26c-357.98,16.89 -678.51,182.49 -961.32,497.28 -298.85,332.34 -488.58,791.11 -569.23,1376.22l2901.31 0c-6.7,-638.21 -130.92,-1110.35 -372.66,-1416.25 -198.88,-251.55 -445.47,-399.5 -739.7,-444.21l63.17 -85.23c455.18,38.32 845.23,198.2 1170.14,479.68 376.05,325.75 564.14,807.8 564.14,1446.05 0,33.28 0,66.58 0,99.7l-3596.28 0 9.89 -80.39 -670.76 0.93zm630.55 638.09c0,824.39 145.99,1429.48 438.15,1815.09 292.17,385.71 676.62,578.49 1153.5,578.49 671.56,0 1269.32,-99.7 1793.11,-299.18l30.29 69.82c-537.3,206.09 -1143.4,309.11 -1818.36,309.11 -674.96,0 -1224.03,-199.44 -1647.11,-598.33 -423.09,-398.96 -634.64,-1013.99 -634.64,-1845.13 0,-207.76 13.88,-403.86 41.56,-588.36l673.66 0c-20.14,179.51 -30.17,365.71 -30.17,558.51z"/>
   <polygon class="fil1 str0" points="4640.22,896.99 5025.53,886.28 4463.63,1651.57 4394.08,1651.57 "/>
  </g>
 </g>
</svg>
